<svg width="20" height="21" viewBox="0 0 20 21" fill="none" xmlns="http://www.w3.org/2000/svg">
<g clip-path="url(#clip0_1384_24482)">
<path d="M19.672 7.4453L10.297 2.4453C10.2048 2.39923 10.1032 2.37524 10.0001 2.37524C9.89705 2.37524 9.79541 2.39923 9.70323 2.4453L0.328225 7.4453C0.22884 7.49987 0.145944 7.58015 0.0882033 7.67773C0.0304629 7.7753 0 7.8866 0 7.99999C0 8.11337 0.0304629 8.22467 0.0882033 8.32225C0.145944 8.41983 0.22884 8.5001 0.328225 8.55467L2.1876 9.53905V13.4297C2.18642 13.6979 2.27436 13.959 2.4376 14.1719C3.05479 15 5.42979 17.6875 10.0001 17.6875C11.3965 17.6991 12.7801 17.4198 14.0626 16.8672V19.25C14.0626 19.4157 14.1284 19.5747 14.2457 19.6919C14.3629 19.8091 14.5218 19.875 14.6876 19.875C14.8534 19.875 15.0123 19.8091 15.1295 19.6919C15.2468 19.5747 15.3126 19.4157 15.3126 19.25V16.2109C16.1759 15.6678 16.9374 14.9777 17.5626 14.1719C17.7258 13.959 17.8138 13.6979 17.8126 13.4297V9.53905L19.672 8.55467C19.7714 8.5001 19.8543 8.41983 19.912 8.32225C19.9697 8.22467 20.0002 8.11337 20.0002 7.99999C20.0002 7.8866 19.9697 7.7753 19.912 7.67773C19.8543 7.58015 19.7714 7.49987 19.672 7.4453ZM10.0001 16.4375C6.00791 16.4375 3.96885 14.1328 3.4376 13.4297V10.2109L9.70323 13.5547C9.79541 13.6007 9.89705 13.6247 10.0001 13.6247C10.1032 13.6247 10.2048 13.6007 10.297 13.5547L14.0626 11.5391V15.4844C13.0392 16.0234 11.6954 16.4375 10.0001 16.4375ZM16.5626 13.4219C16.2035 13.8946 15.7831 14.3176 15.3126 14.6797V10.875L16.5626 10.2109V13.4219ZM16.8907 8.61718L14.6876 9.78905L10.297 7.4453C10.2236 7.39519 10.1405 7.36109 10.0531 7.34521C9.96567 7.32934 9.87589 7.33206 9.78959 7.35318C9.70329 7.37431 9.62241 7.41337 9.5522 7.46782C9.482 7.52228 9.42405 7.59091 9.38212 7.66924C9.3402 7.74757 9.31524 7.83386 9.30887 7.92248C9.3025 8.0111 9.31486 8.10006 9.34515 8.18359C9.37544 8.26711 9.42298 8.34332 9.48467 8.40726C9.54637 8.4712 9.62083 8.52142 9.70323 8.55467L13.3595 10.5L10.0001 12.289L3.10948 8.61718L1.95323 7.99999L10.0001 3.71092L18.047 7.99999L16.8907 8.61718Z" fill="#A30236"/>
</g>
<defs>
<clipPath id="clip0_1384_24482">
<rect width="20" height="20" fill="white" transform="translate(0 0.5)"/>
</clipPath>
</defs>
</svg>
