<svg width="21" height="21" viewBox="0 0 21 21" fill="none" xmlns="http://www.w3.org/2000/svg">
<g clip-path="url(#clip0_1384_24493)">
<path fill-rule="evenodd" clip-rule="evenodd" d="M0.45298 15.0684C1.07459 12.5745 3.51895 11.4109 5.83665 11.4109C6.76968 11.4109 7.69173 11.5515 8.54919 11.9444C8.90065 12.1054 9.05503 12.5209 8.894 12.8724C8.73297 13.2238 8.3175 13.3782 7.96604 13.2172C7.3422 12.9313 6.63277 12.8109 5.83665 12.8109C4.01988 12.8109 2.44847 13.6426 1.91222 15.0814H6.12389C6.51049 15.0814 6.82389 15.3948 6.82389 15.7814C6.82389 16.168 6.51049 16.4814 6.12389 16.4814H1.51668C0.685684 16.4814 0.29984 15.6865 0.45274 15.0693L0.45298 15.0684Z" fill="#A30236"/>
<path fill-rule="evenodd" clip-rule="evenodd" d="M4.64269 5.99503C4.36727 6.2932 4.1998 6.73639 4.1998 7.28783C4.1998 7.74849 4.42244 8.19885 4.79055 8.54709C5.16407 8.90044 5.62366 9.08783 5.9998 9.08783C6.35317 9.08783 6.81161 8.88748 7.20012 8.50667C7.5867 8.12775 7.7998 7.67239 7.7998 7.28783C7.7998 6.73639 7.63234 6.2932 7.35692 5.99503C7.08985 5.7059 6.66168 5.48783 5.9998 5.48783C5.33793 5.48783 4.90976 5.7059 4.64269 5.99503ZM3.61428 5.04509C4.183 4.4294 5.00482 4.08783 5.9998 4.08783C6.99479 4.08783 7.81661 4.4294 8.38533 5.04509C8.94569 5.65175 9.1998 6.45856 9.1998 7.28783C9.1998 8.15327 8.74999 8.94791 8.18011 9.50648C7.61216 10.0632 6.8206 10.4878 5.9998 10.4878C5.20179 10.4878 4.41137 10.1156 3.82844 9.56411C3.24009 9.00752 2.7998 8.20789 2.7998 7.28783C2.7998 6.45856 3.05392 5.65175 3.61428 5.04509Z" fill="#A30236"/>
<path fill-rule="evenodd" clip-rule="evenodd" d="M7.53642 16.2366C8.27523 13.22 11.1877 11.7878 14 11.7878C16.8064 11.7878 19.726 13.1743 20.4647 16.2393C20.6295 16.9223 20.2122 17.7878 19.3226 17.7878H8.6779C7.79048 17.7878 7.36796 16.9242 7.53637 16.2368M8.92401 16.3868H19.0774C18.4749 14.3107 16.3865 13.1888 14 13.1888C11.6222 13.1888 9.52895 14.3438 8.92401 16.3868ZM19.1269 16.5733C19.1269 16.5732 19.1268 16.573 19.1268 16.5729Z" fill="#A30236"/>
<path fill-rule="evenodd" clip-rule="evenodd" d="M12.5157 5.87384C12.2144 6.19997 12.0313 6.6847 12.0313 7.28784C12.0313 7.79168 12.2748 8.28427 12.6774 8.66515C13.0859 9.05164 13.5886 9.25659 14 9.25659C14.3865 9.25659 14.8879 9.03746 15.3128 8.62095C15.7357 8.20651 15.9688 7.70846 15.9688 7.28784C15.9688 6.6847 15.7856 6.19997 15.4843 5.87384C15.1922 5.55761 14.7239 5.31909 14 5.31909C13.2761 5.31909 12.8078 5.55761 12.5157 5.87384ZM11.3908 4.83485C12.0129 4.16144 12.9117 3.78784 14 3.78784C15.0883 3.78784 15.9871 4.16144 16.6092 4.83485C17.2221 5.49838 17.5 6.38083 17.5 7.28784C17.5 8.23442 17.008 9.10355 16.3847 9.7145C15.7635 10.3234 14.8977 10.7878 14 10.7878C13.1272 10.7878 12.2627 10.3807 11.6251 9.77752C10.9816 9.16875 10.5 8.29415 10.5 7.28784C10.5 6.38083 10.7779 5.49838 11.3908 4.83485Z" fill="#A30236"/>
</g>
<defs>
<clipPath id="clip0_1384_24493">
<rect width="20" height="20" fill="white" transform="translate(0.5 0.5)"/>
</clipPath>
</defs>
</svg>
