<svg width="20" height="21" viewBox="0 0 20 21" fill="none" xmlns="http://www.w3.org/2000/svg">
<path d="M9.99199 2.4545C5.39199 2.4545 1.66699 6.18783 1.66699 10.7878C1.66699 15.3878 5.39199 19.1212 9.99199 19.1212C14.6003 19.1212 18.3337 15.3878 18.3337 10.7878C18.3337 6.18783 14.6003 2.4545 9.99199 2.4545ZM10.0003 17.4545C6.31699 17.4545 3.33366 14.4712 3.33366 10.7878C3.33366 7.1045 6.31699 4.12116 10.0003 4.12116C13.6837 4.12116 16.667 7.1045 16.667 10.7878C16.667 14.4712 13.6837 17.4545 10.0003 17.4545ZM9.81699 6.62116H9.76699C9.43366 6.62116 9.16699 6.88783 9.16699 7.22116V11.1545C9.16699 11.4462 9.31699 11.7212 9.57533 11.8712L13.0337 13.9462C13.317 14.1128 13.6837 14.0295 13.8503 13.7462C13.8922 13.6787 13.92 13.6035 13.9322 13.525C13.9443 13.4466 13.9406 13.3665 13.9212 13.2895C13.9017 13.2125 13.867 13.1402 13.819 13.0769C13.7711 13.0137 13.7109 12.9607 13.642 12.9212L10.417 11.0045V7.22116C10.417 6.88783 10.1503 6.62116 9.81699 6.62116Z" fill="#A30236"/>
</svg>
