<svg width="20" height="21" viewBox="0 0 20 21" fill="none" xmlns="http://www.w3.org/2000/svg">
<path d="M17.1875 4.09375H13.9062V2.84375C13.9062 2.75781 13.8359 2.6875 13.75 2.6875H12.6562C12.5703 2.6875 12.5 2.75781 12.5 2.84375V4.09375H7.5V2.84375C7.5 2.75781 7.42969 2.6875 7.34375 2.6875H6.25C6.16406 2.6875 6.09375 2.75781 6.09375 2.84375V4.09375H2.8125C2.4668 4.09375 2.1875 4.37305 2.1875 4.71875V17.6875C2.1875 18.0332 2.4668 18.3125 2.8125 18.3125H17.1875C17.5332 18.3125 17.8125 18.0332 17.8125 17.6875V4.71875C17.8125 4.37305 17.5332 4.09375 17.1875 4.09375ZM16.4062 16.9062H3.59375V9.48438H16.4062V16.9062ZM3.59375 8.15625V5.5H6.09375V6.4375C6.09375 6.52344 6.16406 6.59375 6.25 6.59375H7.34375C7.42969 6.59375 7.5 6.52344 7.5 6.4375V5.5H12.5V6.4375C12.5 6.52344 12.5703 6.59375 12.6562 6.59375H13.75C13.8359 6.59375 13.9062 6.52344 13.9062 6.4375V5.5H16.4062V8.15625H3.59375Z" fill="#A30236"/>
</svg>
