<svg width="21" height="21" viewBox="0 0 21 21" fill="none" xmlns="http://www.w3.org/2000/svg">
<path d="M18.75 15.7812L18.1016 13.3672L15.5156 3.70312C15.4296 3.38303 15.22 3.1102 14.9328 2.94465C14.6456 2.7791 14.3045 2.73438 13.9844 2.82031L11.5703 3.46875L11.4922 3.49219C11.3757 3.33943 11.2257 3.21557 11.0536 3.13021C10.8815 3.04485 10.6921 3.00029 10.5 3H8C7.78008 3.00059 7.5643 3.05993 7.375 3.17188C7.1857 3.05993 6.96992 3.00059 6.75 3H4.25C3.91848 3 3.60054 3.1317 3.36612 3.36612C3.1317 3.60054 3 3.91848 3 4.25V16.75C3 17.0815 3.1317 17.3995 3.36612 17.6339C3.60054 17.8683 3.91848 18 4.25 18H6.75C6.96992 17.9994 7.1857 17.9401 7.375 17.8281C7.5643 17.9401 7.78008 17.9994 8 18H10.5C10.8315 18 11.1495 17.8683 11.3839 17.6339C11.6183 17.3995 11.75 17.0815 11.75 16.75V8.96875L13.2734 14.6562L13.9219 17.0703C13.9927 17.3373 14.1499 17.5733 14.3689 17.7415C14.588 17.9097 14.8566 18.0006 15.1328 18C15.2406 17.9981 15.348 17.985 15.4531 17.9609L17.8672 17.3125C18.026 17.2699 18.1748 17.1961 18.3048 17.0955C18.4349 16.9949 18.5438 16.8695 18.625 16.7266C18.7083 16.5855 18.7623 16.4291 18.7838 16.2666C18.8053 16.1042 18.7938 15.9391 18.75 15.7812ZM12.7031 7.69531L15.1172 7.04688L16.7344 13.0859L14.3203 13.7344L12.7031 7.69531ZM14.3047 4.03125L14.7969 5.83594L12.3828 6.48438L11.8906 4.67969L14.3047 4.03125ZM10.5 4.25V13.625H8V4.25H10.5ZM6.75 4.25V6.125H4.25V4.25H6.75ZM4.25 16.75V7.375H6.75V16.75H4.25ZM10.5 16.75H8V14.875H10.5V16.75ZM17.5469 16.1016L15.1328 16.75L14.6406 14.9375L17.0625 14.2891L17.5469 16.1016Z" fill="#A30236"/>
</svg>
