<svg width="15" height="15" viewBox="0 0 15 15" fill="none" xmlns="http://www.w3.org/2000/svg">
<path d="M7.21752 6.34313L12.2595 0.953955C12.6141 0.574854 13.209 0.555053 13.5881 0.909729C13.9672 1.26441 13.987 1.85925 13.6323 2.23835L8.59037 7.62752L14.0818 12.7651C14.4689 13.1273 14.4892 13.7348 14.1269 14.122C13.7647 14.5092 13.1572 14.5294 12.7701 14.1672L7.27864 9.02959L2.23669 14.4188C1.88202 14.7979 1.28717 14.8177 0.908071 14.463C0.528969 14.1083 0.509168 13.5135 0.863844 13.1344L5.90579 7.74519L0.385178 2.58027C-0.00199048 2.21804 -0.022213 1.61054 0.34001 1.22337C0.702233 0.836203 1.30974 0.815981 1.6969 1.1782L7.21752 6.34313Z" fill="#A0A0A0"/>
</svg>
