<svg width="20" height="21" viewBox="0 0 20 21" fill="none" xmlns="http://www.w3.org/2000/svg">
<g clip-path="url(#clip0_459_6541)">
<path d="M11.6034 10.3334L9.35739 9.28539C9.16139 9.19439 9.00039 9.29639 9.00039 9.51339V11.4874C9.00039 11.7044 9.16139 11.8064 9.35739 11.7154L11.6024 10.6674C11.7994 10.5754 11.7994 10.4254 11.6034 10.3334ZM10.0004 0.900391C4.69839 0.900391 0.400391 5.19839 0.400391 10.5004C0.400391 15.8024 4.69839 20.1004 10.0004 20.1004C15.3024 20.1004 19.6004 15.8024 19.6004 10.5004C19.6004 5.19839 15.3024 0.900391 10.0004 0.900391ZM10.0004 14.4004C5.08639 14.4004 5.00039 13.9574 5.00039 10.5004C5.00039 7.04339 5.08639 6.60039 10.0004 6.60039C14.9144 6.60039 15.0004 7.04339 15.0004 10.5004C15.0004 13.9574 14.9144 14.4004 10.0004 14.4004Z" fill="white"/>
</g>
<defs>
<clipPath id="clip0_459_6541">
<rect width="20" height="20" fill="white" transform="translate(0 0.5)"/>
</clipPath>
</defs>
</svg>
