<svg width="20" height="21" viewBox="0 0 20 21" fill="none" xmlns="http://www.w3.org/2000/svg">
<g clip-path="url(#clip0_459_6543)">
<path d="M10.0004 0.900391C4.69839 0.900391 0.400391 5.19839 0.400391 10.5004C0.400391 15.8024 4.69839 20.1004 10.0004 20.1004C15.3024 20.1004 19.6004 15.8024 19.6004 10.5004C19.6004 5.19839 15.3024 0.900391 10.0004 0.900391ZM13.6924 11.7314C13.6924 11.7314 14.5414 12.5694 14.7504 12.9584C14.7564 12.9664 14.7594 12.9744 14.7614 12.9784C14.8464 13.1214 14.8664 13.2324 14.8244 13.3154C14.7544 13.4534 14.5144 13.5214 14.4324 13.5274H12.9324C12.8284 13.5274 12.6104 13.5004 12.3464 13.3184C12.1434 13.1764 11.9434 12.9434 11.7484 12.7164C11.4574 12.3784 11.2054 12.0864 10.9514 12.0864C10.9191 12.0863 10.8871 12.0914 10.8564 12.1014C10.6644 12.1634 10.4184 12.4374 10.4184 13.1674C10.4184 13.3954 10.2384 13.5264 10.1114 13.5264H9.42439C9.19039 13.5264 7.97139 13.4444 6.89139 12.3054C5.56939 10.9104 4.37939 8.11239 4.36939 8.08639C4.29439 7.90539 4.44939 7.80839 4.61839 7.80839H6.13339C6.33539 7.80839 6.40139 7.93139 6.44739 8.04039C6.50139 8.16739 6.69939 8.67239 7.02439 9.24039C7.55139 10.1664 7.87439 10.5424 8.13339 10.5424C8.18196 10.5418 8.22965 10.5295 8.27239 10.5064C8.61039 10.3184 8.54739 9.11339 8.53239 8.86339C8.53239 8.81639 8.53139 8.32439 8.35839 8.08839C8.23439 7.91739 8.02339 7.85239 7.89539 7.82839C7.9472 7.7569 8.01545 7.69894 8.09439 7.65939C8.32639 7.54339 8.74439 7.52639 9.15939 7.52639H9.39039C9.84039 7.53239 9.95639 7.56139 10.1194 7.60239C10.4494 7.68139 10.4564 7.89439 10.4274 8.62339C10.4184 8.83039 10.4094 9.06439 10.4094 9.34039C10.4094 9.40039 10.4064 9.46439 10.4064 9.53239C10.3964 9.90339 10.3844 10.3244 10.6464 10.4974C10.6806 10.5188 10.7201 10.5303 10.7604 10.5304C10.8514 10.5304 11.1254 10.5304 11.8674 9.25739C12.0962 8.84765 12.2951 8.42187 12.4624 7.98339C12.4774 7.95739 12.5214 7.87739 12.5734 7.84639C12.6118 7.82683 12.6543 7.81687 12.6974 7.81739H14.4784C14.6724 7.81739 14.8054 7.84639 14.8304 7.92139C14.8744 8.04039 14.8224 8.40339 14.0094 9.50439L13.6464 9.98339C12.9094 10.9494 12.9094 10.9984 13.6924 11.7314Z" fill="white"/>
</g>
<defs>
<clipPath id="clip0_459_6543">
<rect width="20" height="20" fill="white" transform="translate(0 0.5)"/>
</clipPath>
</defs>
</svg>
