<svg width="20" height="21" viewBox="0 0 20 21" fill="none" xmlns="http://www.w3.org/2000/svg">
<g clip-path="url(#clip0_459_6545)">
<path d="M13.2701 15.0871L14.9107 7.35268C14.9777 7.0253 14.9386 6.79092 14.7935 6.64955C14.6484 6.50818 14.4568 6.48214 14.2188 6.57143L4.57589 10.2879C4.36012 10.3698 4.21317 10.4628 4.13504 10.567C4.05692 10.6711 4.04762 10.7697 4.10714 10.8627C4.16667 10.9557 4.28571 11.0283 4.46429 11.0804L6.9308 11.8504L12.6562 8.24554C12.8125 8.14137 12.9315 8.11905 13.0134 8.17857C13.0655 8.21577 13.0506 8.27158 12.9688 8.34598L8.33705 12.5312L8.15848 15.0759C8.32961 15.0759 8.49702 14.994 8.66071 14.8304L9.86607 13.6696L12.3661 15.5112C12.8423 15.779 13.1436 15.6376 13.2701 15.0871ZM20 10.5C20 11.8542 19.7359 13.1488 19.2076 14.3839C18.6793 15.619 17.9688 16.683 17.0759 17.5759C16.183 18.4688 15.119 19.1793 13.8839 19.7076C12.6488 20.2359 11.3542 20.5 10 20.5C8.64583 20.5 7.35119 20.2359 6.11607 19.7076C4.88095 19.1793 3.81696 18.4688 2.92411 17.5759C2.03125 16.683 1.32068 15.619 0.792411 14.3839C0.264137 13.1488 0 11.8542 0 10.5C0 9.14583 0.264137 7.85119 0.792411 6.61607C1.32068 5.38095 2.03125 4.31696 2.92411 3.42411C3.81696 2.53125 4.88095 1.82068 6.11607 1.29241C7.35119 0.764137 8.64583 0.5 10 0.5C11.3542 0.5 12.6488 0.764137 13.8839 1.29241C15.119 1.82068 16.183 2.53125 17.0759 3.42411C17.9688 4.31696 18.6793 5.38095 19.2076 6.61607C19.7359 7.85119 20 9.14583 20 10.5Z" fill="white"/>
</g>
<defs>
<clipPath id="clip0_459_6545">
<rect width="20" height="20" fill="white" transform="translate(0 0.5)"/>
</clipPath>
</defs>
</svg>
