<svg width="22" height="19" viewBox="0 0 22 19" fill="none" xmlns="http://www.w3.org/2000/svg">
<path d="M1 6.56701C1 7.90722 1.20619 9.96907 3.06186 11.8247C4.71134 13.4742 10.1753 17.1856 10.3814 17.3918C10.5876 17.4948 10.7938 17.5979 11 17.5979C11.2062 17.5979 11.4124 17.4948 11.6186 17.3918C11.8247 17.1856 17.2887 13.5773 18.9381 11.8247C20.7938 9.96907 21 7.90722 21 6.56701C21 3.47423 18.5258 1 15.433 1C13.7835 1 12.134 1.92784 11.1031 3.37113C10.0722 1.92784 8.42268 1 6.56701 1C3.57732 1 1 3.47423 1 6.56701Z" fill="#F7F7F7" stroke="#D9D9D9"/>
</svg>
