<svg width="29" height="28" viewBox="0 0 29 28" fill="none" xmlns="http://www.w3.org/2000/svg">
<path d="M24.7305 5.03125H20.1367V3.28125C20.1367 3.16094 20.0383 3.0625 19.918 3.0625H18.3867C18.2664 3.0625 18.168 3.16094 18.168 3.28125V5.03125H11.168V3.28125C11.168 3.16094 11.0695 3.0625 10.9492 3.0625H9.41797C9.29766 3.0625 9.19922 3.16094 9.19922 3.28125V5.03125H4.60547C4.12148 5.03125 3.73047 5.42227 3.73047 5.90625V24.0625C3.73047 24.5465 4.12148 24.9375 4.60547 24.9375H24.7305C25.2145 24.9375 25.6055 24.5465 25.6055 24.0625V5.90625C25.6055 5.42227 25.2145 5.03125 24.7305 5.03125ZM23.6367 22.9688H5.69922V12.5781H23.6367V22.9688ZM5.69922 10.7188V7H9.19922V8.3125C9.19922 8.43281 9.29766 8.53125 9.41797 8.53125H10.9492C11.0695 8.53125 11.168 8.43281 11.168 8.3125V7H18.168V8.3125C18.168 8.43281 18.2664 8.53125 18.3867 8.53125H19.918C20.0383 8.53125 20.1367 8.43281 20.1367 8.3125V7H23.6367V10.7188H5.69922Z" fill="#686868"/>
</svg>
