<svg width="20" height="20" viewBox="0 0 20 20" fill="none" xmlns="http://www.w3.org/2000/svg">
<path d="M4.83333 2.41667C4.45761 2.41667 4.09728 2.56592 3.8316 2.8316C3.56592 3.09728 3.41667 3.45761 3.41667 3.83333V15.1667C3.41667 15.5424 3.56592 15.9027 3.8316 16.1684C4.09728 16.4341 4.45761 16.5833 4.83333 16.5833V11.625C4.83333 11.0614 5.05722 10.5209 5.45573 10.1224C5.85425 9.72388 6.39475 9.5 6.95833 9.5H14.0417C14.6053 9.5 15.1458 9.72388 15.5443 10.1224C15.9428 10.5209 16.1667 11.0614 16.1667 11.625V16.5833C16.5424 16.5833 16.9027 16.4341 17.1684 16.1684C17.4341 15.9027 17.5833 15.5424 17.5833 15.1667V6.12975C17.5833 5.75406 17.4339 5.39378 17.1682 5.12817L14.8718 2.83175C14.6062 2.56605 14.2459 2.41675 13.8702 2.41667H13.3333V4.54167C13.3333 5.10525 13.1095 5.64575 12.7109 6.04427C12.3124 6.44278 11.7719 6.66667 11.2083 6.66667H8.375C7.81141 6.66667 7.27091 6.44278 6.8724 6.04427C6.47388 5.64575 6.25 5.10525 6.25 4.54167V2.41667H4.83333ZM7.66667 2.41667V4.54167C7.66667 4.72953 7.74129 4.9097 7.87413 5.04253C8.00697 5.17537 8.18714 5.25 8.375 5.25H11.2083C11.3962 5.25 11.5764 5.17537 11.7092 5.04253C11.842 4.9097 11.9167 4.72953 11.9167 4.54167V2.41667H7.66667ZM14.75 16.5833V11.625C14.75 11.4371 14.6754 11.257 14.5425 11.1241C14.4097 10.9913 14.2295 10.9167 14.0417 10.9167H6.95833C6.77047 10.9167 6.5903 10.9913 6.45747 11.1241C6.32463 11.257 6.25 11.4371 6.25 11.625V16.5833H14.75ZM2 3.83333C2 3.08189 2.29851 2.36122 2.82986 1.82986C3.36122 1.29851 4.08189 1 4.83333 1H13.8702C14.6216 1.00016 15.3422 1.29878 15.8734 1.83017L18.1698 4.12658C18.7012 4.65781 18.9998 5.37836 19 6.12975V15.1667C19 15.9181 18.7015 16.6388 18.1701 17.1701C17.6388 17.7015 16.9181 18 16.1667 18H4.83333C4.08189 18 3.36122 17.7015 2.82986 17.1701C2.29851 16.6388 2 15.9181 2 15.1667V3.83333Z" fill="#A0A0A0"/>
</svg>
