<svg width="28" height="28" viewBox="0 0 28 28" fill="none" xmlns="http://www.w3.org/2000/svg">
<g clip-path="url(#clip0_714_41193)">
<path d="M27.5408 9.72357L14.4158 2.72357C14.2867 2.65907 14.1444 2.62549 14.0001 2.62549C13.8559 2.62549 13.7136 2.65907 13.5845 2.72357L0.459515 9.72357C0.320377 9.79997 0.204321 9.91235 0.123485 10.049C0.0426481 10.1856 0 10.3414 0 10.5001C0 10.6589 0.0426481 10.8147 0.123485 10.9513C0.204321 11.0879 0.320377 11.2003 0.459515 11.2767L3.06264 12.6548V18.1017C3.06099 18.4773 3.1841 18.8427 3.41264 19.1408C4.2767 20.3001 7.6017 24.0626 14.0001 24.0626C15.9552 24.0789 17.8921 23.6878 19.6876 22.9142V26.2501C19.6876 26.4822 19.7798 26.7048 19.9439 26.8688C20.108 27.0329 20.3306 27.1251 20.5626 27.1251C20.7947 27.1251 21.0173 27.0329 21.1814 26.8688C21.3455 26.7048 21.4376 26.4822 21.4376 26.2501V21.9954C22.6463 21.2351 23.7124 20.2689 24.5876 19.1408C24.8162 18.8427 24.9393 18.4773 24.9376 18.1017V12.6548L27.5408 11.2767C27.6799 11.2003 27.796 11.0879 27.8768 10.9513C27.9576 10.8147 28.0003 10.6589 28.0003 10.5001C28.0003 10.3414 27.9576 10.1856 27.8768 10.049C27.796 9.91235 27.6799 9.79997 27.5408 9.72357V9.72357ZM14.0001 22.3126C8.41108 22.3126 5.55639 19.0861 4.81264 18.1017V13.5954L13.5845 18.2767C13.7136 18.3412 13.8559 18.3748 14.0001 18.3748C14.1444 18.3748 14.2867 18.3412 14.4158 18.2767L19.6876 15.4548V20.9783C18.2548 21.7329 16.3736 22.3126 14.0001 22.3126V22.3126ZM23.1876 18.0908C22.6849 18.7526 22.0964 19.3448 21.4376 19.8517V14.5251L23.1876 13.5954V18.0908ZM23.647 11.3642L20.5626 13.0048L14.4158 9.72357C14.3131 9.65341 14.1967 9.60567 14.0743 9.58345C13.9519 9.56123 13.8262 9.56503 13.7054 9.5946C13.5846 9.62418 13.4714 9.67886 13.3731 9.7551C13.2748 9.83134 13.1937 9.92741 13.135 10.0371C13.0763 10.1467 13.0413 10.2675 13.0324 10.3916C13.0235 10.5157 13.0408 10.6402 13.0832 10.7572C13.1256 10.8741 13.1922 10.9808 13.2785 11.0703C13.3649 11.1598 13.4692 11.2301 13.5845 11.2767L18.7033 14.0001L14.0001 16.5048L4.35327 11.3642L2.73452 10.5001L14.0001 4.49544L25.2658 10.5001L23.647 11.3642Z" fill="#686868"/>
</g>
<defs>
<clipPath id="clip0_714_41193">
<rect width="28" height="28" fill="white"/>
</clipPath>
</defs>
</svg>
