<svg width="20" height="20" viewBox="0 0 20 20" fill="none" xmlns="http://www.w3.org/2000/svg">
<path d="M16.6909 5.92456L12.4878 1.72144C12.3706 1.60425 12.2124 1.53784 12.0464 1.53784H3.74951C3.40381 1.53784 3.12451 1.81714 3.12451 2.16284V18.4128C3.12451 18.7585 3.40381 19.0378 3.74951 19.0378H16.2495C16.5952 19.0378 16.8745 18.7585 16.8745 18.4128V6.36792C16.8745 6.2019 16.8081 6.04175 16.6909 5.92456ZM15.4331 6.65503H11.7573V2.97925L15.4331 6.65503ZM15.4683 17.6316H4.53076V2.94409H10.4292V7.16284C10.4292 7.3804 10.5156 7.58905 10.6695 7.74289C10.8233 7.89673 11.032 7.98315 11.2495 7.98315H15.4683V17.6316Z" fill="#686868"/>
</svg>
