<svg width="38" height="38" viewBox="0 0 38 38" fill="none" xmlns="http://www.w3.org/2000/svg">
<path d="M31.7127 11.2567L23.7268 3.27073C23.5041 3.04808 23.2035 2.92191 22.8881 2.92191H7.12402C6.46719 2.92191 5.93652 3.45257 5.93652 4.10941V34.9844C5.93652 35.6412 6.46719 36.1719 7.12402 36.1719H30.874C31.5309 36.1719 32.0615 35.6412 32.0615 34.9844V12.0991C32.0615 11.7836 31.9354 11.4793 31.7127 11.2567ZM29.3229 12.6446H22.3389V5.66058L29.3229 12.6446ZM29.3896 33.5H8.6084V5.59378H19.8154V13.6094C19.8154 14.0228 19.9796 14.4192 20.2719 14.7115C20.5642 15.0038 20.9607 15.168 21.374 15.168H29.3896V33.5Z" fill="#FF5C36"/>
</svg>
