<svg width="20" height="20" viewBox="0 0 20 20" fill="none" xmlns="http://www.w3.org/2000/svg">
<path fill-rule="evenodd" clip-rule="evenodd" d="M8.59871 1.78784C8.12335 1.78784 7.738 2.1732 7.738 2.64856C7.738 3.12392 8.12335 3.50927 8.59871 3.50927H11.4678C11.9431 3.50927 12.3285 3.12392 12.3285 2.64856C12.3285 2.1732 11.9431 1.78784 11.4678 1.78784H8.59871ZM2 4.94375C2 4.4684 2.38535 4.08304 2.86071 4.08304H3.1476H16.919H17.206C17.6813 4.08304 18.0667 4.4684 18.0667 4.94375C18.0667 5.41911 17.6813 5.80447 17.206 5.80447H16.7204L15.3148 17.986C15.248 18.5651 14.7577 19.0021 14.1748 19.0021H5.89184C5.30893 19.0021 4.81861 18.5651 4.75179 17.986L3.34623 5.80447H2.86071C2.38535 5.80447 2 5.41911 2 4.94375ZM5.07908 5.80447H14.9876L13.6634 17.2807H6.40325L5.07908 5.80447Z" fill="#686868"/>
</svg>
