<svg width="28" height="28" viewBox="0 0 28 28" fill="none" xmlns="http://www.w3.org/2000/svg">
<path d="M13.987 2.73633C7.54703 2.73633 2.33203 7.96299 2.33203 14.403C2.33203 20.843 7.54703 26.0697 13.987 26.0697C20.4387 26.0697 25.6654 20.843 25.6654 14.403C25.6654 7.96299 20.4387 2.73633 13.987 2.73633ZM13.9987 23.7363C8.84203 23.7363 4.66536 19.5597 4.66536 14.403C4.66536 9.24633 8.84203 5.06966 13.9987 5.06966C19.1554 5.06966 23.332 9.24633 23.332 14.403C23.332 19.5597 19.1554 23.7363 13.9987 23.7363ZM13.742 8.56966H13.672C13.2054 8.56966 12.832 8.94299 12.832 9.40966V14.9163C12.832 15.3247 13.042 15.7097 13.4037 15.9197L18.2454 18.8247C18.642 19.058 19.1554 18.9413 19.3887 18.5447C19.4473 18.4502 19.4863 18.3449 19.5033 18.2351C19.5203 18.1252 19.5151 18.0131 19.4879 17.9053C19.4606 17.7975 19.412 17.6963 19.3449 17.6077C19.2777 17.5192 19.1934 17.445 19.097 17.3897L14.582 14.7063V9.40966C14.582 8.94299 14.2087 8.56966 13.742 8.56966Z" fill="#686868"/>
</svg>
