<svg width="31" height="30" viewBox="0 0 31 30" fill="none" xmlns="http://www.w3.org/2000/svg">
<path d="M12.2188 9.30761H14.3838V19.2187C14.3838 19.3476 14.4893 19.4531 14.6182 19.4531H16.376C16.5049 19.4531 16.6104 19.3476 16.6104 19.2187V9.30761H18.7812C18.9775 9.30761 19.0859 9.08202 18.9658 8.92968L15.6846 4.77538C15.6626 4.74737 15.6346 4.72471 15.6027 4.70913C15.5707 4.69355 15.5356 4.68546 15.5 4.68546C15.4644 4.68546 15.4293 4.69355 15.3973 4.70913C15.3654 4.72471 15.3374 4.74737 15.3154 4.77538L12.0342 8.92675C11.9141 9.08202 12.0225 9.30761 12.2188 9.30761ZM26.2227 18.3398H24.4648C24.3359 18.3398 24.2305 18.4453 24.2305 18.5742V23.0859H6.76953V18.5742C6.76953 18.4453 6.66406 18.3398 6.53516 18.3398H4.77734C4.64844 18.3398 4.54297 18.4453 4.54297 18.5742V24.375C4.54297 24.8935 4.96191 25.3125 5.48047 25.3125H25.5195C26.0381 25.3125 26.457 24.8935 26.457 24.375V18.5742C26.457 18.4453 26.3516 18.3398 26.2227 18.3398Z" fill="#686868"/>
</svg>
