<svg width="22" height="22" viewBox="0 0 22 22" fill="none" xmlns="http://www.w3.org/2000/svg">
<path d="M13.24 8.568C13.24 8.056 13.0533 7.64 12.68 7.32C12.3173 7 11.8373 6.84 11.24 6.84C10.0773 6.84 9.32533 7.4 8.984 8.52H7.592C7.73067 7.656 8.12 6.94667 8.76 6.392C9.41067 5.83733 10.2427 5.56 11.256 5.56C12.2907 5.56 13.1173 5.83733 13.736 6.392C14.3653 6.94667 14.68 7.65067 14.68 8.504C14.68 8.824 14.6373 9.12267 14.552 9.4C14.4773 9.66667 14.392 9.88533 14.296 10.056C14.2107 10.216 14.0613 10.3973 13.848 10.6C13.6453 10.792 13.496 10.9253 13.4 11C13.3147 11.064 13.144 11.1867 12.888 11.368C12.8347 11.4107 12.7387 11.48 12.6 11.576C12.472 11.6613 12.3813 11.7253 12.328 11.768C12.2853 11.8 12.2107 11.8587 12.104 11.944C11.9973 12.0293 11.9227 12.0987 11.88 12.152C11.8373 12.2053 11.784 12.28 11.72 12.376C11.656 12.4613 11.608 12.5467 11.576 12.632C11.5547 12.7173 11.5333 12.8187 11.512 12.936C11.4907 13.0533 11.48 13.176 11.48 13.304V13.64H10.136V13.224C10.136 12.7653 10.216 12.3653 10.376 12.024C10.536 11.6827 10.712 11.4267 10.904 11.256C11.1067 11.0747 11.4107 10.8453 11.816 10.568C12.136 10.344 12.376 10.1627 12.536 10.024C12.7067 9.88533 12.8667 9.688 13.016 9.432C13.1653 9.16533 13.24 8.87733 13.24 8.568ZM10.152 15.512C10.344 15.32 10.5787 15.224 10.856 15.224C11.1333 15.224 11.368 15.32 11.56 15.512C11.752 15.6933 11.848 15.9227 11.848 16.2C11.848 16.4773 11.752 16.712 11.56 16.904C11.368 17.0853 11.1333 17.176 10.856 17.176C10.5787 17.176 10.344 17.0853 10.152 16.904C9.96 16.712 9.864 16.4773 9.864 16.2C9.864 15.9227 9.96 15.6933 10.152 15.512Z" fill="#686868"/>
<rect x="0.5" y="0.5" width="21" height="21" rx="10.5" stroke="#D9D9D9"/>
</svg>
