<svg width="28" height="22" viewBox="0 0 28 22" fill="none" xmlns="http://www.w3.org/2000/svg">
<path d="M22.4505 5.98527C22.2822 8.32162 20.549 10.1214 18.659 10.1214C16.7691 10.1214 15.033 8.32219 14.8676 5.98527C14.6952 3.55471 16.3824 1.84912 18.659 1.84912C20.9356 1.84912 22.6229 3.59894 22.4505 5.98527Z" stroke="#686868" stroke-width="1.8" stroke-linecap="round" stroke-linejoin="round"/>
<path d="M18.6588 13.7979C14.915 13.7979 11.3148 15.6574 10.4129 19.2788C10.2934 19.7579 10.5939 20.2319 11.0862 20.2319H26.232C26.7243 20.2319 27.023 19.7579 26.9052 19.2788C26.0033 15.5994 22.4031 13.7979 18.6588 13.7979Z" stroke="#686868" stroke-width="1.8" stroke-miterlimit="10"/>
<path d="M10.8449 7.01595C10.7105 8.88181 9.30997 10.3513 7.80028 10.3513C6.29059 10.3513 4.88775 8.88238 4.75562 7.01595C4.61832 5.07483 5.98153 3.6875 7.80028 3.6875C9.61904 3.6875 10.9822 5.11045 10.8449 7.01595Z" stroke="#686868" stroke-width="1.8" stroke-linecap="round" stroke-linejoin="round"/>
<path d="M11.1916 13.9126C10.1547 13.4376 9.01262 13.2549 7.80222 13.2549C4.815 13.2549 1.93693 14.7399 1.21598 17.6323C1.12119 18.0149 1.36132 18.3935 1.75425 18.3935H8.20434" stroke="#686868" stroke-width="1.8" stroke-miterlimit="10" stroke-linecap="round"/>
</svg>
