<svg width="187" height="155" viewBox="0 0 187 155" fill="none" xmlns="http://www.w3.org/2000/svg">
<path d="M171.202 0C158.691 12.5193 149.472 22.403 142.229 30.9688C134.986 38.8758 127.084 50.7362 118.524 66.5501C109.964 82.364 106.013 96.86 106.013 110.038C106.013 152.868 151.448 167.364 175.153 143.643C200.833 120.581 181.737 73.1392 146.839 76.4338C144.863 73.7981 144.205 71.1625 144.205 68.5268C144.205 55.3486 160.666 26.3565 179.104 7.90696L171.202 0ZM65.1884 0C52.6775 12.5193 43.4589 22.403 36.2158 30.9688C28.9726 38.8758 21.071 50.7362 12.5109 66.5501C3.95081 82.364 0 96.86 0 110.038C0 152.868 45.4343 167.364 69.1392 143.643C94.8195 120.581 75.7239 73.1392 40.8251 76.4338C38.8497 73.7981 38.1912 71.1625 38.1912 68.5268C38.1912 55.3486 54.6529 26.3565 73.09 7.90696L65.1884 0Z" fill="#FFEFEB"/>
</svg>
