<svg width="20" height="21" viewBox="0 0 20 21" fill="none" xmlns="http://www.w3.org/2000/svg">
<path d="M10 1.5C9.58934 1.5 9.17868 1.64744 8.82856 1.91118L7.7361 2.7114L6.48305 2.88446H6.46331L6.44225 2.90522C6.03021 3.00279 5.65296 3.22138 5.35437 3.53557C5.05578 3.84976 4.84811 4.24665 4.75551 4.68009L4.73577 4.70086V4.72301L4.57124 6.06455L3.81046 7.10289L3.7894 7.12366V7.14581C3.33004 7.91972 3.30898 8.91791 3.81046 9.65514L4.59033 10.8035L4.79697 11.9928L2.67785 15.3896C2.3847 15.8476 2.71364 16.4487 3.25746 16.4487H5.14643L5.90721 18.3094C6.10321 18.8019 6.77747 18.8673 7.0589 18.418L9.13722 15.13C9.69398 15.3722 10.3258 15.393 10.8641 15.13L12.9418 18.418C13.2234 18.8667 13.8976 18.7994 14.0935 18.3073L14.8536 16.448H16.7414C17.2859 16.448 17.6154 15.8463 17.3221 15.3875L15.2649 12.1001L15.4294 10.8022L16.1902 9.65583L16.2113 9.63506V9.6143C16.6706 8.839 16.6917 7.86434 16.1902 7.12574L15.4294 5.97871L15.1826 4.68009H15.2024C15.2024 4.66279 15.1846 4.65241 15.1826 4.63648C15.0642 3.73174 14.3817 2.9959 13.5176 2.88515H13.4965L12.2626 2.71209L11.1721 1.91188C10.8317 1.64952 10.4219 1.50553 10 1.5ZM10 2.90522C10.1514 2.90522 10.3014 2.95368 10.4113 3.03675L11.5828 3.9228L11.7275 4.03079L11.8921 4.05294L13.332 4.26891H13.3518C13.6466 4.30352 13.8546 4.52157 13.8868 4.83169V4.87461L14.1547 6.41136L14.1744 6.56157L14.2777 6.69171L15.1201 7.92387C15.2781 8.15577 15.2978 8.54273 15.1004 8.87638L14.2777 10.0878L14.1751 10.2401L14.154 10.4131L13.9487 11.9263V11.9471C13.9384 12.0555 13.9032 12.1595 13.846 12.2503L13.8045 12.2724V12.2946C13.7065 12.4177 13.5663 12.4953 13.4143 12.5106H13.3735L11.873 12.7923L11.7085 12.8131L11.5834 12.9218L10.412 13.8078C10.1928 13.9739 9.80388 13.9947 9.48667 13.787L8.41658 12.9218L8.29286 12.8138L8.10859 12.7916L6.66798 12.5756H6.64692C6.55379 12.5676 6.46392 12.5358 6.38513 12.483C6.30633 12.4302 6.241 12.3579 6.1948 12.2724C6.15067 12.1927 6.12246 12.1044 6.11188 12.0129V11.9699L5.84469 10.3917L5.82363 10.2186L5.72096 10.0871L4.87858 8.85492C4.72063 8.62441 4.70089 8.2153 4.89832 7.88165L5.72096 6.75609L5.82363 6.62595L5.84337 6.43212L6.02961 4.98191C6.03093 4.97221 6.04673 4.97152 6.04936 4.96114C6.09064 4.79463 6.17338 4.64271 6.28906 4.52104C6.40474 4.39936 6.54917 4.31233 6.70747 4.26891C6.71734 4.26614 6.718 4.24953 6.72721 4.24814L8.10596 4.05294L8.27048 4.03079L8.41527 3.9228L9.58671 3.03675C9.69661 2.95368 9.84732 2.90522 9.99803 2.90522H10ZM14.5449 13.4409L15.5531 15.0635H13.9684L13.8039 15.4962L13.3524 16.5989L11.9539 14.3491L12.2619 14.111L13.5571 13.8722V13.893C13.5735 13.893 13.5834 13.8743 13.5986 13.8722C13.9447 13.8194 14.271 13.67 14.5436 13.4395L14.5449 13.4409ZM5.45508 13.4617C5.7361 13.7261 6.09148 13.9103 6.48305 13.9601H6.5028L7.75847 14.1332L8.04607 14.3713L6.64824 16.5989L6.19612 15.4962L6.03159 15.0628H4.44554L5.45377 13.4617H5.45508Z" fill="#686868"/>
</svg>
