<svg width="20" height="21" viewBox="0 0 20 21" fill="none" xmlns="http://www.w3.org/2000/svg">
<path d="M1.71289 10.4998C1.71289 15.0772 5.42337 18.7876 10.0008 18.7876C14.5781 18.7876 18.2886 15.0772 18.2886 10.4998C18.2886 5.92239 14.5781 2.21191 10.0008 2.21191C5.42337 2.21191 1.71289 5.92239 1.71289 10.4998Z" stroke="#686868" stroke-width="1.25" stroke-linecap="round" stroke-linejoin="round"/>
<path d="M10.8297 2.25342C10.8297 2.25342 13.3161 5.52712 13.3161 10.4998C13.3161 15.4726 10.8297 18.7463 10.8297 18.7463M9.17217 18.7463C9.17217 18.7463 6.68581 15.4726 6.68581 10.4998C6.68581 5.52712 9.17217 2.25342 9.17217 2.25342M2.23523 13.4006H17.7667M2.23523 7.59909H17.7667" stroke="#686868" stroke-width="1.25" stroke-linecap="round" stroke-linejoin="round"/>
</svg>
