<svg width="20" height="21" viewBox="0 0 20 21" fill="none" xmlns="http://www.w3.org/2000/svg">
<g clip-path="url(#clip0_314_10552)">
<path d="M15.7998 6.91826C15.6796 8.58708 14.4416 9.87265 13.0917 9.87265C11.7417 9.87265 10.5016 8.58749 10.3835 6.91826C10.2604 5.18214 11.4655 3.96387 13.0917 3.96387C14.7178 3.96387 15.9229 5.21374 15.7998 6.91826Z" stroke="#686868" stroke-width="1.8" stroke-linecap="round" stroke-linejoin="round"/>
<path d="M13.091 12.4985C10.4169 12.4985 7.84531 13.8268 7.20109 16.4135C7.11574 16.7557 7.33034 17.0943 7.68199 17.0943H18.5004C18.852 17.0943 19.0654 16.7557 18.9813 16.4135C18.3371 13.7853 15.7655 12.4985 13.091 12.4985Z" stroke="#686868" stroke-width="1.8" stroke-miterlimit="10"/>
<path d="M7.51056 7.65432C7.41454 8.98708 6.41415 10.0367 5.3358 10.0367C4.25745 10.0367 3.25542 8.98749 3.16104 7.65432C3.06297 6.26781 4.03669 5.27686 5.3358 5.27686C6.63491 5.27686 7.60863 6.29325 7.51056 7.65432Z" stroke="#686868" stroke-width="1.8" stroke-linecap="round" stroke-linejoin="round"/>
<path d="M7.75718 12.5807C7.01653 12.2413 6.20079 12.1108 5.33622 12.1108C3.2025 12.1108 1.14673 13.1715 0.631767 15.2376C0.564063 15.5109 0.735581 15.7813 1.01625 15.7813H5.62346" stroke="#686868" stroke-width="1.8" stroke-miterlimit="10" stroke-linecap="round"/>
</g>
<defs>
<clipPath id="clip0_314_10552">
<rect width="20" height="20" fill="white" transform="translate(0 0.5)"/>
</clipPath>
</defs>
</svg>
