<svg width="20" height="21" viewBox="0 0 20 21" fill="none" xmlns="http://www.w3.org/2000/svg">
<path d="M9.99199 2.45459C5.39199 2.45459 1.66699 6.18792 1.66699 10.7879C1.66699 15.3879 5.39199 19.1213 9.99199 19.1213C14.6003 19.1213 18.3337 15.3879 18.3337 10.7879C18.3337 6.18792 14.6003 2.45459 9.99199 2.45459ZM10.0003 17.4546C6.31699 17.4546 3.33366 14.4713 3.33366 10.7879C3.33366 7.10459 6.31699 4.12126 10.0003 4.12126C13.6837 4.12126 16.667 7.10459 16.667 10.7879C16.667 14.4713 13.6837 17.4546 10.0003 17.4546ZM9.81699 6.62126H9.76699C9.43366 6.62126 9.16699 6.88792 9.16699 7.22126V11.1546C9.16699 11.4463 9.31699 11.7213 9.57533 11.8713L13.0337 13.9463C13.317 14.1129 13.6837 14.0296 13.8503 13.7463C13.8922 13.6788 13.92 13.6036 13.9322 13.5251C13.9443 13.4467 13.9406 13.3665 13.9212 13.2896C13.9017 13.2126 13.867 13.1403 13.819 13.077C13.7711 13.0138 13.7109 12.9608 13.642 12.9213L10.417 11.0046V7.22126C10.417 6.88792 10.1503 6.62126 9.81699 6.62126Z" fill="#686868"/>
</svg>
