<svg width="20" height="21" viewBox="0 0 20 21" fill="none" xmlns="http://www.w3.org/2000/svg">
<g clip-path="url(#clip0_314_10568)">
<path d="M19.6719 7.44554L10.2969 2.44554C10.2047 2.39947 10.103 2.37549 9.99998 2.37549C9.89692 2.37549 9.79528 2.39947 9.7031 2.44554L0.328103 7.44554C0.228718 7.50012 0.145822 7.58039 0.0880812 7.67797C0.0303409 7.77555 -0.00012207 7.88685 -0.00012207 8.00023C-0.00012207 8.11361 0.0303409 8.22491 0.0880812 8.32249C0.145822 8.42007 0.228718 8.50035 0.328103 8.55492L2.18748 9.53929V13.4299C2.1863 13.6982 2.27424 13.9592 2.43748 14.1721C3.05467 15.0002 5.42967 17.6877 9.99998 17.6877C11.3964 17.6994 12.78 17.42 14.0625 16.8674V19.2502C14.0625 19.416 14.1283 19.575 14.2455 19.6922C14.3627 19.8094 14.5217 19.8752 14.6875 19.8752C14.8532 19.8752 15.0122 19.8094 15.1294 19.6922C15.2466 19.575 15.3125 19.416 15.3125 19.2502V16.2112C16.1758 15.6681 16.9373 14.9779 17.5625 14.1721C17.7257 13.9592 17.8137 13.6982 17.8125 13.4299V9.53929L19.6719 8.55492C19.7712 8.50035 19.8541 8.42007 19.9119 8.32249C19.9696 8.22491 20.0001 8.11361 20.0001 8.00023C20.0001 7.88685 19.9696 7.77555 19.9119 7.67797C19.8541 7.58039 19.7712 7.50012 19.6719 7.44554V7.44554ZM9.99998 16.4377C6.00779 16.4377 3.96873 14.133 3.43748 13.4299V10.2112L9.7031 13.5549C9.79528 13.601 9.89692 13.625 9.99998 13.625C10.103 13.625 10.2047 13.601 10.2969 13.5549L14.0625 11.5393V15.4846C13.039 16.0237 11.6953 16.4377 9.99998 16.4377V16.4377ZM16.5625 13.4221C16.2034 13.8949 15.783 14.3179 15.3125 14.6799V10.8752L16.5625 10.2112V13.4221ZM16.8906 8.61742L14.6875 9.78929L10.2969 7.44554C10.2235 7.39543 10.1404 7.36133 10.053 7.34546C9.96555 7.32959 9.87577 7.3323 9.78947 7.35343C9.70317 7.37455 9.62229 7.41361 9.55208 7.46807C9.48188 7.52252 9.42393 7.59115 9.382 7.66948C9.34008 7.74782 9.31512 7.8341 9.30875 7.92272C9.30238 8.01134 9.31474 8.10031 9.34503 8.18383C9.37532 8.26736 9.42286 8.34357 9.48455 8.4075C9.54625 8.47144 9.62071 8.52167 9.7031 8.55492L13.3594 10.5002L9.99998 12.2893L3.10935 8.61742L1.9531 8.00023L9.99998 3.71117L18.0469 8.00023L16.8906 8.61742Z" fill="#686868"/>
</g>
<defs>
<clipPath id="clip0_314_10568">
<rect width="20" height="20" fill="white" transform="translate(0 0.5)"/>
</clipPath>
</defs>
</svg>
