<svg width="20" height="21" viewBox="0 0 20 21" fill="none" xmlns="http://www.w3.org/2000/svg">
<g clip-path="url(#clip0_444_6244)">
<path d="M14.0638 0.585064C14.1861 0.655987 14.2808 0.766301 14.3323 0.897986C14.3838 1.02967 14.3892 1.17494 14.3475 1.31006L12.0963 8.62506H16.25C16.3721 8.62502 16.4915 8.66071 16.5935 8.72775C16.6955 8.79479 16.7757 8.89024 16.824 9.0023C16.8724 9.11437 16.887 9.23816 16.8658 9.35838C16.8446 9.4786 16.7887 9.59 16.705 9.67881L6.70501 20.3038C6.60825 20.4067 6.47949 20.4738 6.33972 20.4941C6.19995 20.5145 6.05742 20.4869 5.93534 20.4158C5.81327 20.3448 5.71886 20.2345 5.66749 20.1029C5.61613 19.9714 5.61085 19.8263 5.65251 19.6913L7.90376 12.3751H3.75001C3.62794 12.3751 3.50853 12.3394 3.40651 12.2724C3.3045 12.2053 3.22435 12.1099 3.17596 11.9978C3.12757 11.8858 3.11306 11.762 3.13421 11.6417C3.15537 11.5215 3.21127 11.4101 3.29501 11.3213L13.295 0.696314C13.3916 0.593563 13.5202 0.526525 13.6598 0.5061C13.7993 0.485675 13.9417 0.513064 14.0638 0.583814V0.585064ZM5.19626 11.1251H8.75001C8.84782 11.125 8.94426 11.148 9.03159 11.192C9.11892 11.2361 9.1947 11.3 9.25282 11.3787C9.31094 11.4573 9.34978 11.5486 9.36623 11.645C9.38267 11.7414 9.37626 11.8403 9.34751 11.9338L7.63751 17.4876L14.8025 9.87506H11.25C11.1522 9.87508 11.0557 9.85215 10.9684 9.8081C10.8811 9.76405 10.8053 9.70012 10.7472 9.62145C10.6891 9.54278 10.6502 9.45157 10.6338 9.35515C10.6173 9.25873 10.6237 9.1598 10.6525 9.06631L12.3625 3.51256L5.19626 11.1251Z" fill="#686868"/>
</g>
<defs>
<clipPath id="clip0_444_6244">
<rect width="20" height="20" fill="white" transform="translate(0 0.5)"/>
</clipPath>
</defs>
</svg>
